# xmcd
#
# Track frame offsets:
#	150
#	16937
#	33372
#	49193
#	72617
#	89504
#	108603
#	123480
#	141609
#	158144
#	191140
#	207720
#	236995
#	253933
#	269290
#	284959
#	301744
#
# Disc length: 4262 seconds
#
# Revision: 1
# Processed by: cddbd v1.5.2PL0 Copyright (c) Steve Scherf et al.
# Submitted via: audiograbber 1.83.01
#
DISCID=1910a411
DTITLE=Schlager ABC - A-D - A-D
DYEAR=1900
DGENRE=Schlager
TTITLE0=Du hast mich 1000 Mal belogen Andrea Berg
TTITLE1=03 - Deine Fluegel fangen Feu
TTITLE2=Tausend gute Gr nde
TTITLE3=Ich Fang Dir Den Mond
TTITLE4=Wer Ist Dieser DJ
TTITLE5=1000 Traeume Weit (Tornero)
TTITLE6=Wenn Du Diesen Brief Liest
TTITLE7=Amsterdam
TTITLE8=Mir schenkst du Rosen (Remix
TTITLE9=Hit Mix
TTITLE10=Viva la Noche '97
TTITLE11=Der Hit-auf-Hit-Party-Mix
TTITLE12=Hotel Engel
TTITLE13=Ein Stern (Der Deinen Namen..
TTITLE14=I Will Lebn
TTITLE15=Noch In 100000 Jahren
TTITLE16=7 Suenden
EXTD=
EXTT0=
EXTT1=
EXTT2=
EXTT3=
EXTT4=
EXTT5=
EXTT6=
EXTT7=
EXTT8=
EXTT9=
EXTT10=
EXTT11=
EXTT12=
EXTT13=
EXTT14=
EXTT15=
EXTT16=
PLAYORDER=
